<?xml version="1.0" encoding="UTF-8"?>
<svg version="1.1" xmlns="http://www.w3.org/2000/svg" width="500" height="500">
<path d="M0 0 C37.67460113 -0.04573706 75.34919809 -0.08099865 113.02382135 -0.10213066 C117.4675411 -0.10463219 121.9112608 -0.10722083 126.35498047 -0.10986328 C127.23967782 -0.1103879 128.12437517 -0.11091252 129.03588153 -0.11145304 C143.37729457 -0.12016533 157.71869163 -0.13593981 172.06009518 -0.15430559 C186.76608521 -0.17298177 201.47206687 -0.18411188 216.17806828 -0.18817699 C225.25887104 -0.1909268 234.33962868 -0.19962446 243.42041756 -0.21583293 C249.64003525 -0.22637168 255.85962947 -0.22960772 262.07925545 -0.22700275 C265.672357 -0.22571659 269.26537947 -0.22774424 272.8584671 -0.23841095 C276.74640328 -0.24986924 280.63423499 -0.24599788 284.52218628 -0.24050903 C286.2410288 -0.24924756 286.2410288 -0.24924756 287.99459541 -0.25816262 C289.54719619 -0.25218947 289.54719619 -0.25218947 291.13116264 -0.24609566 C292.02958094 -0.2468551 292.92799925 -0.24761454 293.85364234 -0.24839699 C296 0 296 0 298 2 C299.40775302 2.2787351 300.82706624 2.50116344 302.25 2.6875 C307.06394906 3.62548363 309.00758299 5.62881956 311.80859375 9.5390625 C312.20175781 10.02117187 312.59492188 10.50328125 313 11 C313.66 11 314.32 11 315 11 C315.33 12.65 315.66 14.3 316 16 C316.66 16 317.32 16 318 16 C320 20.75 320 20.75 320 23 C320.66 23.33 321.32 23.66 322 24 C322.6875 26.5 322.6875 26.5 323 29 C322.67 29.33 322.34 29.66 322 30 C321.90198798 31.53896196 321.87368156 33.08241675 321.87301636 34.62449646 C321.86878662 36.12414948 321.86878662 36.12414948 321.86447144 37.65409851 C321.86649567 38.76009903 321.8685199 39.86609955 321.87060547 41.00561523 C321.86885315 42.16322357 321.86710083 43.32083191 321.86529541 44.51351929 C321.86087369 48.36189244 321.86381621 52.21022008 321.8671875 56.05859375 C321.86651451 58.72038328 321.86554621 61.3821714 321.86428833 64.04396057 C321.86246666 69.63193256 321.86487261 75.21989134 321.86962891 80.80786133 C321.87506887 87.27382098 321.8733108 93.73974909 321.8678025 100.20570797 C321.86326813 105.74966529 321.8626225 111.2936131 321.86524117 116.83757168 C321.8668025 120.15198407 321.86661076 123.46637833 321.86370468 126.78079033 C321.86117668 130.47554559 321.86502103 134.17023956 321.87060547 137.86499023 C321.86756912 139.52095467 321.86756912 139.52095467 321.86447144 141.21037292 C321.86729126 142.21296143 321.87011108 143.21554993 321.87301636 144.2485199 C321.87339338 145.12292441 321.87377041 145.99732893 321.87415886 146.89823055 C321.86533661 149.0581374 321.86533661 149.0581374 323 151 C321.30187354 156.30273846 318.70073763 160.85068811 315 165 C314.608125 165.515625 314.21625 166.03125 313.8125 166.5625 C311.12380733 170.05780047 309.13673832 171.62108723 305 173 C303.25457394 173.9933646 301.54670655 175.0333084 299.84375 176.09765625 C296.02645033 177.96586859 292.02876614 178.12485095 287.84010601 178.12304783 C286.81648266 178.12503888 285.7928593 178.12702993 284.73821706 178.12908131 C283.62051531 178.12616847 282.50281356 178.12325563 281.35124207 178.12025452 C280.1586562 178.12110894 278.96607034 178.12196337 277.73734552 178.12284368 C274.43076219 178.1242059 271.12423805 178.121081 267.81766188 178.11606562 C264.25057262 178.11174701 260.68348518 178.11320855 257.11639404 178.1139679 C250.93737035 178.11449223 244.75835721 178.11135482 238.57933617 178.10573006 C229.6455104 178.09760288 220.71168974 178.09499859 211.77786068 178.09374207 C197.28330071 178.09155346 182.78874637 178.08489857 168.29418945 178.07543945 C154.21411161 178.06626038 140.1340353 178.05918197 126.05395508 178.05493164 C125.18605298 178.05466892 124.31815089 178.05440619 123.42394873 178.05413551 C119.06993717 178.05283047 114.71592561 178.05156676 110.36191404 178.05032361 C74.24127205 178.03995696 38.12063646 178.02234385 2 178 C1.505 177.01 1.505 177.01 1 176 C0.195625 176.12375 -0.60875 176.2475 -1.4375 176.375 C-5.92730918 175.90238851 -8.25796727 174.11789746 -11.8515625 171.5078125 C-13.92758914 169.95106597 -13.92758914 169.95106597 -16.1796875 169.015625 C-19.20010513 167.33041345 -19.71593241 164.10316334 -21 161 C-22.051875 160.071875 -22.051875 160.071875 -23.125 159.125 C-27.83368585 153.78848936 -26.15437402 142.41966307 -26.16113281 135.61474609 C-26.16609772 134.40547958 -26.17106262 133.19621307 -26.17617798 131.95030212 C-26.1882087 128.65914194 -26.19572273 125.36801709 -26.20018864 122.07683897 C-26.20313488 120.01653115 -26.20724222 117.9562287 -26.21169281 115.89592361 C-26.22533001 109.43691677 -26.23501813 102.97792241 -26.2388947 96.51890218 C-26.24338271 89.0847561 -26.26098071 81.65079321 -26.2898953 74.21670282 C-26.31153467 68.45170004 -26.32159999 62.68674878 -26.32293582 56.92170584 C-26.32398115 53.48590298 -26.3298321 50.05027321 -26.34775543 46.6145134 C-26.36480678 42.78502195 -26.36293826 38.95597884 -26.35644531 35.12646484 C-26.3656601 33.99692886 -26.37487488 32.86739288 -26.3843689 31.70362854 C-26.35237291 25.68042682 -25.87292802 21.33107269 -23 16 C-22.34 16 -21.68 16 -21 16 C-21 15.34 -21 14.68 -21 14 C-20.34 13.34 -19.68 12.68 -19 12 C-18.2575 11.030625 -17.515 10.06125 -16.75 9.0625 C-12.37542749 3.81812944 -7.56062556 2.90047802 -1 2 C-0.67 1.34 -0.34 0.68 0 0 Z M103 47 C101.47490511 50.05018978 101.87024056 53.22549613 101.88647461 56.57080078 C101.88632858 57.35137848 101.88618256 58.13195618 101.8860321 58.93618774 C101.88673014 61.52259069 101.89451743 64.10892209 101.90234375 66.6953125 C101.90420832 68.48607341 101.90563204 70.27683483 101.90663147 72.06759644 C101.91045359 76.78584191 101.92028129 81.5040567 101.93133545 86.22229004 C101.94155611 91.03490789 101.9461305 95.84753068 101.95117188 100.66015625 C101.96190381 110.10678433 101.9789766 119.55338962 102 129 C106.62 129 111.24 129 116 129 C116.0231502 118.7514961 116.04092879 108.50299839 116.05181217 98.25447369 C116.05703512 93.495893 116.06412215 88.73733017 116.07543945 83.97875977 C116.08628916 79.38817481 116.09228128 74.79760706 116.09487724 70.20701027 C116.09672772 68.45389345 116.10034114 66.70077759 116.10573006 64.94766808 C116.11296809 62.4959343 116.11398977 60.044272 116.11352539 57.5925293 C116.11712067 56.86460678 116.12071594 56.13668427 116.12442017 55.38670349 C116.11809644 52.30989819 115.98124887 49.94374662 115 47 C114.401875 47.165 113.80375 47.33 113.1875 47.5 C109.56753703 48.32742011 106.57196409 47.77231656 103 47 Z M132 47 C132 47.66 132 48.32 132 49 C131.01 49.495 131.01 49.495 130 50 C131.11298695 57.66724343 133.55487118 64.37877768 136.52368164 71.48974609 C138.378298 76.01799002 139.51386072 80.08391649 140 85 C140.37617294 88.26410357 140.37617294 88.26410357 141 91 C141.66 91.33 142.32 91.66 143 92 C144.42765922 96.28297767 145.34694438 100.53745327 146 105 C146.66 105 147.32 105 148 105 C147.78472656 105.70125 147.56945312 106.4025 147.34765625 107.125 C146.903061 110.80165289 147.87093333 112.67157651 149.4375 116 C152.00512022 121.48505245 152.00512022 121.48505245 151.97265625 124.75 C151.98167969 125.4925 151.99070313 126.235 152 127 C155.68087353 129.45391569 158.44355588 129.22802759 162.6875 129.125 C163.38939453 129.11597656 164.09128906 129.10695313 164.81445312 129.09765625 C166.54311525 129.07413704 168.27160145 129.03826713 170 129 C170.268125 127.741875 170.53625 126.48375 170.8125 125.1875 C172.0185023 119.73879894 173.49377287 114.37221011 175 109 C175.66 109 176.32 109 177 109 C177.28875 107.72125 177.5775 106.4425 177.875 105.125 C178.060625 104.30386719 178.24625 103.48273438 178.4375 102.63671875 C178.8043793 100.91697204 179.13935204 99.19001624 179.4375 97.45703125 C180.14807959 93.36485413 180.89687077 89.88899281 182.9375 86.25 C185.51137056 81.56764508 186.19993504 76.59380975 187.21875 71.39453125 C188.07199682 67.68717382 189.35140353 64.57463356 191.015625 61.17578125 C192.78409624 57.26689839 193.86228914 53.12851139 195 49 C194.34 48.34 193.68 47.68 193 47 C192.01 47 191.02 47 190 47 C190 47.66 190 48.32 190 49 C186.7 49 183.4 49 180 49 C179.505 48.01 179.505 48.01 179 47 C178.81824219 48.28583984 178.81824219 48.28583984 178.6328125 49.59765625 C177.46978283 57.53309718 175.82483886 64.78171307 173.0625 72.3125 C170.18259972 80.17849629 167.8836556 87.4102332 167.25 95.79296875 C166.95093547 98.43314776 166.18623093 100.62753814 165 103 C164.67 103 164.34 103 164 103 C163.67 104.65 163.34 106.3 163 108 C161.0703125 107.41015625 161.0703125 107.41015625 159 106 C158.2421875 103.05859375 158.2421875 103.05859375 157.875 99.4375 C157.72417969 98.1690625 157.57335937 96.900625 157.41796875 95.59375 C157.28003906 94.4078125 157.14210938 93.221875 157 92 C156.13994811 86.50956776 154.51249155 81.65766578 152.4375 76.5 C150.3110605 71.1745474 149.36763694 66.69837256 149 61 C148.67 60.01 148.34 59.02 148 58 C147.87625 56.824375 147.7525 55.64875 147.625 54.4375 C147.41875 53.303125 147.2125 52.16875 147 51 C143.81237635 48.87491756 141.73487777 48.4979837 138 48 C138 47.67 138 47.34 138 47 C136.02 47 134.04 47 132 47 Z M209 47 C209 74.06 209 101.12 209 129 C226.49 129 243.98 129 262 129 C262.33 125.7 262.66 122.4 263 119 C263.33 118.34 263.66 117.68 264 117 C250.14 116.67 236.28 116.34 222 116 C222 97 222 97 223 95 C231.58 94.67 240.16 94.34 249 94 C249 90.37 249 86.74 249 83 C236.13 82.505 236.13 82.505 223 82 C222.31367279 77.19570956 221.86370399 73.08506629 221.875 68.3125 C221.87242187 67.21550781 221.86984375 66.11851562 221.8671875 64.98828125 C222 62 222 62 223 58 C235.87 58 248.74 58 262 58 C262 55.03 262 52.06 262 49 C260.68 49 259.36 49 258 49 C258 48.34 258 47.68 258 47 C257.34 47 256.68 47 256 47 C256 47.66 256 48.32 256 49 C254.68 49 253.36 49 252 49 C252 48.34 252 47.68 252 47 C248.04 47 244.08 47 240 47 C240 47.66 240 48.32 240 49 C230.43 49 220.86 49 211 49 C211 48.34 211 47.68 211 47 C210.34 47 209.68 47 209 47 Z M33 49 C33 75.4 33 101.8 33 129 C50.82 129 68.64 129 87 129 C87.33 125.04 87.66 121.08 88 117 C74.14 116.67 60.28 116.34 46 116 C46.01160156 111.24722656 46.02320313 106.49445313 46.03515625 101.59765625 C46.04026318 98.59439968 46.04507696 95.59114844 46.04882812 92.58789062 C46.0548159 87.81647638 46.06191446 83.04508125 46.07543945 78.27368164 C46.08627061 74.42874886 46.09227732 70.58383655 46.09487724 66.73888969 C46.09673108 65.26881017 46.10035091 63.79873182 46.10573006 62.32866096 C46.11294355 60.27645533 46.11399081 58.22433533 46.11352539 56.17211914 C46.115746 55.00185684 46.11796661 53.83159454 46.12025452 52.62586975 C46.29900313 50.07433058 46.29900313 50.07433058 45 49 C41.04 49 37.08 49 33 49 Z M151 71 C152 73 152 73 152 73 Z M136 72 C137 74 137 74 137 74 Z M157 93 C158 95 158 95 158 95 Z M173 117 C174 119 174 119 174 119 Z M319 154 C320 156 320 156 320 156 Z " fill="#FC0101" transform="translate(102,306)"/>
<path d="M0 0 C0.89571213 -0.00637985 1.79142426 -0.0127597 2.71427917 -0.01933289 C3.69326675 -0.02044571 4.67225433 -0.02155853 5.6809082 -0.02270508 C6.68950394 -0.02603348 7.69809967 -0.02936188 8.73725891 -0.03279114 C10.88521874 -0.03787048 13.03318651 -0.04019916 15.18115234 -0.04003906 C18.42274674 -0.04219709 21.6639848 -0.06026183 24.90551758 -0.0793457 C41.03365417 -0.12430148 55.45162105 0.25585316 70.04418945 7.83276367 C72.75970679 9.28619377 72.75970679 9.28619377 75.85668945 9.64526367 C79.12370373 10.20135121 81.13518714 11.19011491 83.79418945 13.14526367 C83.79418945 13.80526367 83.79418945 14.46526367 83.79418945 15.14526367 C84.68170898 15.30961914 84.68170898 15.30961914 85.5871582 15.47729492 C91.72945103 16.70976151 95.8223513 18.12412957 100.29418945 22.70776367 C102.8257334 25.17601902 104.58075266 25.87680178 107.79418945 27.14526367 C108.24793945 27.76401367 108.70168945 28.38276367 109.16918945 29.02026367 C111.09048438 31.53272627 113.27733245 32.60022209 116.0246582 34.08666992 C119.91942003 36.41664885 122.42133259 39.56903034 124.85668945 43.33276367 C126.49872876 46.21153091 126.49872876 46.21153091 128.85668945 47.14526367 C131.78111866 48.65464649 132.3479892 51.25286317 133.79418945 54.14526367 C135.00075195 55.07338867 135.00075195 55.07338867 136.23168945 56.02026367 C139.23934685 58.51441859 140.23648757 60.78530291 141.8293457 64.27807617 C142.74839332 66.31160562 142.74839332 66.31160562 144.79418945 68.02026367 C147.50890129 70.904645 148.42018491 74.07560183 149.78637695 77.75463867 C151.00763773 80.65158284 152.82332511 82.71453098 154.79418945 85.14526367 C155.52289418 87.45997279 156.18658463 89.79585837 156.79418945 92.14526367 C157.52724251 93.83447288 158.2607489 95.52351433 159.00512695 97.20776367 C163.84350472 109.0881368 165.14550362 121.17505741 165.48168945 133.89526367 C165.51113144 134.90907104 165.51113144 134.90907104 165.54116821 135.94335938 C165.79463239 144.85122733 165.8562698 153.73874703 165.48168945 162.64526367 C165.44712646 163.51505859 165.41256348 164.38485352 165.37695312 165.28100586 C165.10911161 170.21085657 164.2562464 174.43614854 162.79418945 179.14526367 C162.71168945 180.34151367 162.62918945 181.53776367 162.54418945 182.77026367 C162.01286528 188.07308729 159.41825599 192.57978424 157.0715332 197.28979492 C155.59002011 200.08032095 155.59002011 200.08032095 155.79418945 203.14526367 C154.8445909 204.8807369 153.88877251 206.61371967 152.8762207 208.31323242 C150.90286227 211.65440609 149.18987431 215.06372508 147.85668945 218.70776367 C146.46829847 221.89289592 145.35917583 223.73816677 142.79418945 226.14526367 C139.54562421 226.91094106 136.33930095 226.82821347 133.01443481 226.79364014 C132.01069663 226.80285122 131.00695844 226.81206231 129.97280395 226.82155252 C126.59928838 226.84623841 123.22684549 226.83504933 119.85327148 226.82397461 C117.43879269 226.83402077 115.02432184 226.84616644 112.60986328 226.86026001 C106.72613913 226.88839705 100.84268508 226.89282396 94.95892467 226.88524684 C90.1764311 226.87942426 85.39402479 226.88261169 80.61153793 226.89221954 C79.93107337 226.89356315 79.2506088 226.89490677 78.54952409 226.89629109 C77.1671826 226.89903431 75.78484112 226.90178679 74.40249966 226.90454844 C61.43552467 226.92915937 48.46871523 226.92154279 35.50173889 226.90397838 C23.63978892 226.88887921 11.77830353 226.91306578 -0.08356617 226.95601079 C-12.26304203 226.99977083 -24.44230001 227.01764594 -36.62185395 227.00723481 C-43.4598789 227.00182819 -50.29753084 227.00656756 -57.13549423 227.03820038 C-63.56575299 227.06760831 -69.99533083 227.06040897 -76.42558289 227.02848434 C-78.78707531 227.02241841 -81.14863296 227.02832121 -83.51005936 227.04699326 C-86.73179079 227.07057251 -89.95048023 227.0511159 -93.17208862 227.02069092 C-94.10905638 227.03767021 -95.04602413 227.0546495 -96.01138484 227.07214332 C-99.64258494 227.00080626 -102.17956972 226.93431301 -105.11706948 224.67574739 C-107.89795422 221.59414673 -109.43201711 219.02197671 -110.33081055 214.95776367 C-111.28439783 210.80284767 -112.21474275 209.94938974 -115.20581055 207.14526367 C-116.51831055 204.02026367 -116.51831055 204.02026367 -117.20581055 201.14526367 C-116.71081055 200.15526367 -116.71081055 200.15526367 -116.20581055 199.14526367 C-116.86581055 198.81526367 -117.52581055 198.48526367 -118.20581055 198.14526367 C-118.92556623 196.16375006 -119.58235228 194.15915151 -120.20581055 192.14526367 C-120.61959961 191.10370117 -121.03338867 190.06213867 -121.4597168 188.98901367 C-124.34378127 181.61958326 -125.80898653 175.11857698 -126.06518555 167.20385742 C-126.19432289 164.39512029 -126.64070338 161.89006992 -127.20581055 159.14526367 C-127.29265473 157.58462263 -127.33611801 156.02081012 -127.33081055 154.45776367 C-127.33338867 153.69077148 -127.3359668 152.9237793 -127.33862305 152.13354492 C-127.20581055 150.14526367 -127.20581055 150.14526367 -126.20581055 148.14526367 C-126.86581055 147.81526367 -127.52581055 147.48526367 -128.20581055 147.14526367 C-128.04081055 146.50588867 -127.87581055 145.86651367 -127.70581055 145.20776367 C-127.09339222 142.02489401 -127.09339222 142.02489401 -127.26831055 138.27026367 C-127.35490668 132.57416272 -126.46085053 127.02366354 -125.64331055 121.40307617 C-125.13926167 118.19755517 -125.13926167 118.19755517 -125.20581055 115.14526367 C-124.21581055 114.65026367 -124.21581055 114.65026367 -123.20581055 114.14526367 C-123.48424805 113.27901367 -123.48424805 113.27901367 -123.76831055 112.39526367 C-124.87634985 106.69677583 -120.97586875 101.30526422 -118.58081055 96.33666992 C-117.36711122 93.5196462 -116.72461075 91.14221629 -116.20581055 88.14526367 C-113.91686881 81.5007928 -113.91686881 81.5007928 -111.20581055 80.14526367 C-110.56365988 78.45815873 -109.99130818 76.74419025 -109.45581055 75.02026367 C-107.83626414 70.33146453 -105.99765275 67.27630208 -102.6003418 63.71557617 C-100.58887224 61.45056003 -99.41556349 58.90081204 -98.20581055 56.14526367 C-97.21581055 56.14526367 -96.22581055 56.14526367 -95.20581055 56.14526367 C-95.20581055 55.15526367 -95.20581055 54.16526367 -95.20581055 53.14526367 C-94.54581055 52.48526367 -93.88581055 51.82526367 -93.20581055 51.14526367 C-92.24674805 49.93870117 -92.24674805 49.93870117 -91.26831055 48.70776367 C-89.65152251 46.69902701 -88.06156748 44.92033553 -86.20581055 43.14526367 C-85.75206055 42.69151367 -85.29831055 42.23776367 -84.83081055 41.77026367 C-82.62247721 39.56193034 -80.41414388 37.35359701 -78.20581055 35.14526367 C-77.71081055 34.56776367 -77.21581055 33.99026367 -76.70581055 33.39526367 C-74.67306204 31.70130659 -72.78786598 31.49419008 -70.20581055 31.14526367 C-70.20581055 30.15526367 -70.20581055 29.16526367 -70.20581055 28.14526367 C-66.69342414 24.63287727 -64.03788593 23.80418304 -59.20581055 23.14526367 C-58.87581055 22.48526367 -58.54581055 21.82526367 -58.20581055 21.14526367 C-55.12302003 17.16332592 -51.81238827 16.15855044 -47.1315918 14.85620117 C-45.00920363 14.32221305 -45.00920363 14.32221305 -44.20581055 12.14526367 C-41.87909201 11.45586559 -39.54513461 10.79059445 -37.20581055 10.14526367 C-36.21581055 9.48526367 -35.22581055 8.82526367 -34.20581055 8.14526367 C-33.42850586 7.99057617 -32.65120117 7.83588867 -31.8503418 7.67651367 C-28.88318391 7.08045241 -26.59854872 5.99201032 -23.89331055 4.64526367 C-17.4824471 1.6512265 -12.24886121 1.14526367 -5.20581055 1.14526367 C-3.65101744 -0.40952944 -2.162686 0.01042846 0 0 Z M-10.20581055 83.14526367 C-10.20581055 116.14526367 -10.20581055 149.14526367 -10.20581055 183.14526367 C-5.16434745 185.66599522 -2.7953075 184.94677463 2.41918945 183.33276367 C4.88835392 182.26232134 4.88835392 182.26232134 6.66918945 180.20776367 C8.79418945 178.14526367 8.79418945 178.14526367 12.16918945 176.70776367 C15.88354974 175.31718849 15.88354974 175.31718849 18.73168945 172.64526367 C21.87843688 170.07649026 24.28177837 169.14832955 28.0480957 167.89526367 C30.42922902 166.872495 31.31830338 165.22492132 32.79418945 163.14526367 C33.68106445 162.87713867 34.56793945 162.60901367 35.48168945 162.33276367 C39.56806672 160.86783597 41.87457391 158.590257 44.9621582 155.60620117 C46.79418945 154.14526367 46.79418945 154.14526367 49.79418945 154.14526367 C49.79418945 153.48526367 49.79418945 152.82526367 49.79418945 152.14526367 C50.78418945 152.14526367 51.77418945 152.14526367 52.79418945 152.14526367 C53.45418945 151.48526367 54.11418945 150.82526367 54.79418945 150.14526367 C57.68111791 148.09233677 60.28539405 146.33747527 63.60668945 145.08276367 C64.32856445 144.77338867 65.05043945 144.46401367 65.79418945 144.14526367 C66.12418945 143.15526367 66.45418945 142.16526367 66.79418945 141.14526367 C68.60668945 140.14526367 68.60668945 140.14526367 70.79418945 139.14526367 C73.78714691 137.48250953 74.62487481 136.71832861 75.60668945 133.39526367 C74.28783356 128.11984011 70.23790548 125.9630619 65.79418945 123.14526367 C63.7240926 122.04337966 61.63793469 121.02985306 59.5090332 120.04760742 C57.16665672 118.81505852 55.58791482 117.06711228 53.79418945 115.14526367 C51.66368067 113.90819405 49.62141356 113.08479211 47.29418945 112.27026367 C44.79418945 111.14526367 44.79418945 111.14526367 42.98168945 109.27026367 C40.44158278 106.80273148 37.92807864 105.65108682 34.75512695 104.15307617 C32.14189687 102.81002167 30.01845059 101.05177322 27.79418945 99.14526367 C24.98014193 97.09947039 24.98014193 97.09947039 22.23168945 96.20776367 C19.79418945 95.14526367 19.79418945 95.14526367 17.79418945 92.14526367 C15.97576701 91.28501592 15.97576701 91.28501592 13.91918945 90.70776367 C10.26542221 89.45485605 8.4917086 87.92979956 5.79418945 85.14526367 C-2.13420145 81.12638334 -2.13420145 81.12638334 -10.20581055 83.14526367 Z M-122.20581055 107.14526367 C-121.20581055 109.14526367 -121.20581055 109.14526367 -121.20581055 109.14526367 Z M75.79418945 132.14526367 C76.79418945 134.14526367 76.79418945 134.14526367 76.79418945 134.14526367 Z M-122.20581055 183.14526367 C-121.20581055 185.14526367 -121.20581055 185.14526367 -121.20581055 185.14526367 Z " fill="#FC0001" transform="translate(230.205810546875,65.854736328125)"/>
<path d="M0 0 C0.73612518 -0.0033284 1.47225037 -0.0066568 2.23068237 -0.01008606 C3.78203717 -0.01512113 5.33340267 -0.01749545 6.88476562 -0.01733398 C9.21503374 -0.01950594 11.54481626 -0.03765796 13.875 -0.05664062 C24.08275947 -0.09482562 34.23633718 0.29792445 44.1171875 3.16796875 C44.4471875 3.49796875 44.7771875 3.82796875 45.1171875 4.16796875 C47.24531455 4.44434889 49.37406826 4.71656835 51.50537109 4.96728516 C61.1240858 6.13867145 69.06696959 8.34977664 77.734375 12.64453125 C80.96902639 14.10124492 83.62194285 14.72667531 87.1171875 15.16796875 C91.62209423 16.63468257 91.62209423 16.63468257 93.484375 18.640625 C95.43235951 20.46278276 97.00912022 20.97924738 99.5546875 21.73046875 C103.75726432 22.98910851 107.08014003 24.0994956 110.1796875 27.29296875 C112.02712077 29.51567946 112.02712077 29.51567946 115.1171875 29.16796875 C116.87109375 30.19140625 116.87109375 30.19140625 118.6796875 31.54296875 C119.57880859 32.20425781 119.57880859 32.20425781 120.49609375 32.87890625 C122.1171875 34.16796875 122.1171875 34.16796875 124.1171875 36.16796875 C124.7771875 36.16796875 125.4371875 36.16796875 126.1171875 36.16796875 C126.1171875 36.82796875 126.1171875 37.48796875 126.1171875 38.16796875 C126.6946875 38.25046875 127.2721875 38.33296875 127.8671875 38.41796875 C130.76364114 39.3834533 132.03865148 40.95952423 134.1171875 43.16796875 C134.7565625 43.64234375 135.3959375 44.11671875 136.0546875 44.60546875 C138.1171875 46.16796875 138.1171875 46.16796875 140.6171875 48.73046875 C142.84871435 51.16229107 142.84871435 51.16229107 145.0390625 52.1015625 C147.42328663 53.32504594 148.9840239 54.76870974 150.8671875 56.66796875 C151.48078125 57.27640625 152.094375 57.88484375 152.7265625 58.51171875 C154.1171875 60.16796875 154.1171875 60.16796875 154.1171875 62.16796875 C154.7153125 62.41546875 155.3134375 62.66296875 155.9296875 62.91796875 C159.0924706 64.72527338 160.59804046 66.99123545 162.0546875 70.29296875 C162.95263696 72.3090596 162.95263696 72.3090596 164.9296875 72.98046875 C167.83650355 74.5584546 169.07545854 76.68822938 170.87109375 79.4140625 C172.07396825 81.21506504 172.07396825 81.21506504 173.68359375 82.7109375 C175.1171875 84.16796875 175.1171875 84.16796875 176.4921875 87.04296875 C177.99433008 90.31487485 177.99433008 90.31487485 180.8046875 92.85546875 C183.1171875 95.16796875 183.1171875 95.16796875 183.1171875 98.16796875 C183.7771875 98.82796875 184.4371875 99.48796875 185.1171875 100.16796875 C188.46249695 104.9161499 191.31542399 109.60232551 193.0546875 115.16796875 C194.26734339 118.59193832 196.09397848 121.16578762 198.1171875 124.16796875 C198.8046875 126.29296875 198.8046875 126.29296875 199.1171875 128.16796875 C199.82406111 131.83384818 201.3873715 134.84148989 203.0546875 138.16796875 C206.39308591 145.28402853 207.56537012 151.91334951 208.37890625 159.66015625 C208.57878888 161.50169788 208.84071814 163.33635926 209.1171875 165.16796875 C209.7771875 165.49796875 210.4371875 165.82796875 211.1171875 166.16796875 C211.71484375 169.1953125 211.71484375 169.1953125 212.1796875 173.10546875 C212.33566406 174.37261719 212.49164063 175.63976562 212.65234375 176.9453125 C212.80829889 178.35275334 212.96319528 179.76031179 213.1171875 181.16796875 C213.20766357 181.9269043 213.29813965 182.68583984 213.39135742 183.46777344 C214.14285607 190.16600134 214.30922258 196.80585463 214.3046875 203.54296875 C214.30460693 204.67041504 214.30452637 205.79786133 214.30444336 206.95947266 C214.228721 218.25087152 214.02821791 230.19105346 211.1171875 241.16796875 C210.4571875 241.16796875 209.7971875 241.16796875 209.1171875 241.16796875 C209.06820313 241.83441406 209.01921875 242.50085938 208.96875 243.1875 C208.19857637 252.68188179 207.23775316 261.50732512 203.06640625 270.16015625 C201.83951895 272.75530057 200.9837801 275.43486903 200.1171875 278.16796875 C199.7871875 278.82796875 199.4571875 279.48796875 199.1171875 280.16796875 C198.9728125 280.76609375 198.8284375 281.36421875 198.6796875 281.98046875 C197.56712585 286.3070974 196.93044133 288.62579953 193.1171875 291.16796875 C192.66279297 292.17150391 192.66279297 292.17150391 192.19921875 293.1953125 C191.1171875 295.16796875 191.1171875 295.16796875 189.12890625 296.171875 C182.92541054 297.66279918 182.92541054 297.66279918 179.0546875 295.29296875 C177.12441755 292.17963012 176.33546347 290.09139566 176.55078125 286.41015625 C177.49222299 282.68334549 179.5847344 279.7333473 181.66015625 276.53515625 C183.5307974 273.49599127 184.32515602 270.64072218 185.1171875 267.16796875 C185.65276343 265.18714521 186.19481697 263.20806552 186.7421875 261.23046875 C187.2009386 259.54308227 187.6594156 257.85562114 188.1171875 256.16796875 C188.7771875 256.16796875 189.4371875 256.16796875 190.1171875 256.16796875 C190.24565063 255.13240845 190.24565063 255.13240845 190.37670898 254.07592773 C190.76870798 250.91902565 191.16168967 247.76224664 191.5546875 244.60546875 C191.75674805 242.97641602 191.75674805 242.97641602 191.96289062 241.31445312 C192.34291327 238.2650031 192.72869418 235.21634985 193.1171875 232.16796875 C193.2114502 231.40758301 193.30571289 230.64719727 193.40283203 229.86376953 C194.00086806 225.28428819 194.00086806 225.28428819 195.1171875 224.16796875 C195.44454347 219.55247535 195.41163956 214.918902 195.4296875 210.29296875 C195.43330292 209.59255463 195.43691833 208.8921405 195.44064331 208.17050171 C195.47876851 189.5940622 193.99422216 170.36352384 190.1171875 152.16796875 C189.4571875 152.16796875 188.7971875 152.16796875 188.1171875 152.16796875 C185.21901025 143.96558032 185.21901025 143.96558032 184.7421875 140.23046875 C183.94092612 136.30428796 182.23728602 133.15908029 180.37109375 129.6328125 C178.55322681 126.05937313 177.2125499 122.97854913 176.7421875 118.98046875 C176.5359375 118.05234375 176.3296875 117.12421875 176.1171875 116.16796875 C175.4984375 115.85859375 174.8796875 115.54921875 174.2421875 115.23046875 C170.86021003 113.53948001 170.41413203 110.58718616 169.1171875 107.16796875 C167.90433121 104.22246061 166.90283125 102.9588407 164.5546875 100.66796875 C162.02646723 98.07492232 161.93310643 97.43164448 161.1171875 94.16796875 C159.910625 92.99234375 159.910625 92.99234375 158.6796875 91.79296875 C156.1171875 89.16796875 156.1171875 89.16796875 155.1171875 85.98046875 C154.39243033 82.93346448 154.39243033 82.93346448 151.4921875 81.79296875 C150.7084375 81.58671875 149.9246875 81.38046875 149.1171875 81.16796875 C149.1171875 80.50796875 149.1171875 79.84796875 149.1171875 79.16796875 C148.1271875 78.83796875 147.1371875 78.50796875 146.1171875 78.16796875 C145.4571875 77.17796875 144.7971875 76.18796875 144.1171875 75.16796875 C142.910625 74.20890625 142.910625 74.20890625 141.6796875 73.23046875 C138.72655824 70.85355983 136.80563033 68.54485442 135.1171875 65.16796875 C134.4571875 64.85859375 133.7971875 64.54921875 133.1171875 64.23046875 C131.1171875 63.16796875 131.1171875 63.16796875 130.1171875 60.16796875 C129.281875 59.98234375 129.281875 59.98234375 128.4296875 59.79296875 C124.8524797 58.82615583 122.847433 56.65552576 120.1171875 54.16796875 C119.7871875 53.50796875 119.4571875 52.84796875 119.1171875 52.16796875 C118.2096875 51.87921875 117.3021875 51.59046875 116.3671875 51.29296875 C112.89387436 50.09066805 110.7812876 48.67535708 108.1171875 46.16796875 C108.1171875 45.50796875 108.1171875 44.84796875 108.1171875 44.16796875 C106.9003125 43.89984375 105.6834375 43.63171875 104.4296875 43.35546875 C100.90296844 42.47222295 98.06196454 41.37655153 95.1171875 39.16796875 C95.1171875 38.50796875 95.1171875 37.84796875 95.1171875 37.16796875 C94.12460937 37.08417969 93.13203125 37.00039063 92.109375 36.9140625 C87.64580761 36.27560854 84.16092402 34.36851931 80.2421875 32.23046875 C74.53415617 29.24086025 69.55000632 27.11707317 63.1171875 26.16796875 C60.1171875 25.66796875 60.1171875 25.66796875 58.1171875 25.16796875 C57.7871875 24.50796875 57.4571875 23.84796875 57.1171875 23.16796875 C54.8293727 22.69927582 54.8293727 22.69927582 52.1796875 22.54296875 C51.28378906 22.46820312 50.38789063 22.3934375 49.46484375 22.31640625 C48.01767044 22.22490444 46.56725066 22.16796875 45.1171875 22.16796875 C45.1171875 21.50796875 45.1171875 20.84796875 45.1171875 20.16796875 C44.2303125 20.35359375 43.3434375 20.53921875 42.4296875 20.73046875 C39.11826556 21.16782636 37.34079199 20.81810747 34.1171875 20.16796875 C31.46763255 19.94229688 28.83342275 19.75082154 26.1796875 19.60546875 C25.42679443 19.56373535 24.67390137 19.52200195 23.89819336 19.47900391 C13.82085169 18.95763368 3.81530484 19.07035699 -6.2578125 19.60546875 C-6.99507568 19.64462402 -7.73233887 19.6837793 -8.49194336 19.72412109 C-12.10310545 19.93675805 -15.65227019 20.25634812 -19.234375 20.765625 C-22.8828125 21.16796875 -22.8828125 21.16796875 -25.8828125 20.16796875 C-26.2128125 20.82796875 -26.5428125 21.48796875 -26.8828125 22.16796875 C-29.46598977 22.56262083 -32.02469531 22.67603027 -34.6328125 22.82421875 C-35.7465625 22.994375 -35.7465625 22.994375 -36.8828125 23.16796875 C-37.2128125 23.82796875 -37.5428125 24.48796875 -37.8828125 25.16796875 C-40.10558829 25.93895774 -42.36307542 26.6112355 -44.6328125 27.23046875 C-45.86515625 27.57207031 -47.0975 27.91367187 -48.3671875 28.265625 C-51.8828125 29.16796875 -51.8828125 29.16796875 -54.5078125 29.60546875 C-57.42645949 30.29672725 -59.5621944 31.56835939 -62.1328125 33.10546875 C-67.06717871 35.89736931 -71.3065407 37.25382583 -76.8828125 38.16796875 C-76.8828125 38.82796875 -76.8828125 39.48796875 -76.8828125 40.16796875 C-82.45115782 43.01688961 -82.45115782 43.01688961 -85.3828125 44.04296875 C-88.71867951 45.5441089 -91.1096606 47.79923483 -93.8828125 50.16796875 C-98.43453664 53.16796875 -98.43453664 53.16796875 -100.8828125 53.16796875 C-101.1509375 53.78671875 -101.4190625 54.40546875 -101.6953125 55.04296875 C-102.8828125 57.16796875 -102.8828125 57.16796875 -105.8828125 59.16796875 C-107.2028125 59.16796875 -108.5228125 59.16796875 -109.8828125 59.16796875 C-109.9240625 59.74546875 -109.9653125 60.32296875 -110.0078125 60.91796875 C-111.32263791 64.29894838 -113.86315958 65.29578394 -116.8828125 67.16796875 C-118.67404627 68.76017654 -119.97075446 70.28888895 -121.3828125 72.23046875 C-122.8828125 74.16796875 -122.8828125 74.16796875 -125.8828125 76.16796875 C-127.55348383 78.16462473 -129.22034236 80.16447909 -130.8828125 82.16796875 C-131.8728125 82.66296875 -131.8728125 82.66296875 -132.8828125 83.16796875 C-133.89972514 85.15942266 -134.89923898 87.15983949 -135.8828125 89.16796875 C-136.5428125 89.82796875 -137.2028125 90.48796875 -137.8828125 91.16796875 C-138.8728125 91.16796875 -139.8628125 91.16796875 -140.8828125 91.16796875 C-141.12064453 92.03808594 -141.12064453 92.03808594 -141.36328125 92.92578125 C-143.03447553 98.52105048 -145.03387071 101.82557288 -148.8828125 106.16796875 C-149.1921875 106.95171875 -149.5015625 107.73546875 -149.8203125 108.54296875 C-150.90340666 111.21884843 -152.16462851 112.91468617 -153.9453125 115.16796875 C-156.34223097 118.26374778 -157.29848558 120.27245595 -157.8828125 124.16796875 C-159.39018384 127.5578491 -161.14720771 130.82576448 -162.9296875 134.078125 C-164.05055476 136.53576428 -164.6066739 138.90673455 -165.1953125 141.54296875 C-166.617257 147.5005516 -168.60644786 153.12872647 -170.796875 158.84375 C-177.5171323 179.41547288 -175.56794314 205.22143877 -174.0078125 226.60546875 C-173.92950195 227.68376953 -173.85119141 228.76207031 -173.77050781 229.87304688 C-172.97635603 239.7375683 -171.70172768 248.99880288 -167.8828125 258.16796875 C-165.39690208 264.42390225 -163.70764088 270.45557228 -162.8828125 277.16796875 C-162.2228125 277.16796875 -161.5628125 277.16796875 -160.8828125 277.16796875 C-156.01324728 286.95057745 -156.01324728 286.95057745 -156.8828125 292.16796875 C-159.10274546 295.0271862 -161.06943434 295.69588301 -164.5703125 296.35546875 C-165.78267578 296.59330078 -165.78267578 296.59330078 -167.01953125 296.8359375 C-167.63441406 296.94550781 -168.24929687 297.05507813 -168.8828125 297.16796875 C-168.8828125 296.50796875 -168.8828125 295.84796875 -168.8828125 295.16796875 C-169.5015625 294.94109375 -170.1203125 294.71421875 -170.7578125 294.48046875 C-173.52409487 292.77188258 -173.78522306 291.16804654 -174.8828125 288.16796875 C-175.35460937 287.77738281 -175.82640625 287.38679688 -176.3125 286.984375 C-178.68143247 284.24419191 -179.15742502 280.99281351 -179.9453125 277.54296875 C-180.52247969 275.04886476 -181.1578974 272.62739731 -181.8828125 270.16796875 C-182.5428125 269.83796875 -183.2028125 269.50796875 -183.8828125 269.16796875 C-184.69921875 267.19921875 -184.69921875 267.19921875 -185.4453125 264.66796875 C-185.69410156 263.85328125 -185.94289063 263.03859375 -186.19921875 262.19921875 C-186.75962986 259.71419576 -187.07761194 257.44184231 -187.3125 254.91796875 C-187.89462596 249.16969923 -189.5188813 243.79690719 -191.15429688 238.2734375 C-192.71426122 232.71578027 -193.01339281 227.93621219 -192.8828125 222.16796875 C-193.2128125 221.83796875 -193.5428125 221.50796875 -193.8828125 221.16796875 C-193.98368462 218.65872722 -194.02253282 216.17760491 -194.015625 213.66796875 C-194.01658173 212.91708984 -194.01753845 212.16621094 -194.01852417 211.39257812 C-194.01920588 209.80208248 -194.01735222 208.21158408 -194.01318359 206.62109375 C-194.00783517 204.1783222 -194.01312884 201.73573454 -194.01953125 199.29296875 C-194.01887047 197.75130168 -194.0175893 196.20963472 -194.015625 194.66796875 C-194.01764923 193.93255859 -194.01967346 193.19714844 -194.02175903 192.43945312 C-193.99776411 187.28292036 -193.99776411 187.28292036 -192.8828125 186.16796875 C-192.9446875 184.27111328 -192.9446875 184.27111328 -193.0078125 182.3359375 C-193.07342734 176.4153695 -191.50923886 171.13266667 -189.8828125 165.48046875 C-187.42292865 156.96584329 -187.42292865 156.96584329 -186.8828125 148.16796875 C-186.296875 145.6484375 -186.296875 145.6484375 -185.5078125 143.35546875 C-185.25257813 142.58589844 -184.99734375 141.81632813 -184.734375 141.0234375 C-183.8828125 139.16796875 -183.8828125 139.16796875 -181.8828125 138.16796875 C-181.33739292 136.38484761 -181.33739292 136.38484761 -181.0078125 134.23046875 C-179.94615671 128.98117068 -178.31309604 123.95258947 -175.8828125 119.16796875 C-174.8928125 118.67296875 -174.8928125 118.67296875 -173.8828125 118.16796875 C-173.41403794 116.49377391 -172.94891359 114.81841664 -172.5078125 113.13671875 C-171.12600912 108.7840381 -168.66319891 105.10902295 -165.7578125 101.60546875 C-163.69676073 99.21568774 -163.69676073 99.21568774 -162.8828125 95.98046875 C-162.5528125 95.05234375 -162.2228125 94.12421875 -161.8828125 93.16796875 C-161.2228125 92.85859375 -160.5628125 92.54921875 -159.8828125 92.23046875 C-159.2228125 91.87984375 -158.5628125 91.52921875 -157.8828125 91.16796875 C-157.19341441 88.84125021 -156.52814328 86.50729281 -155.8828125 84.16796875 C-153.8828125 81.73046875 -153.8828125 81.73046875 -151.8828125 80.16796875 C-151.2228125 80.16796875 -150.5628125 80.16796875 -149.8828125 80.16796875 C-149.77839844 79.58273438 -149.67398438 78.9975 -149.56640625 78.39453125 C-148.78118702 75.83696006 -147.72731669 74.52103698 -145.9453125 72.54296875 C-145.42066406 71.95257813 -144.89601562 71.3621875 -144.35546875 70.75390625 C-140.01976123 66.08468276 -135.38873076 61.67388701 -130.8828125 57.16796875 C-130.0784375 56.30171875 -129.2740625 55.43546875 -128.4453125 54.54296875 C-125.88557222 52.17052654 -125.056522 51.93403656 -121.8828125 51.16796875 C-120.77444827 49.28480716 -120.77444827 49.28480716 -119.8828125 47.16796875 C-117.85109118 44.78290459 -116.95249404 44.19119593 -113.8828125 43.16796875 C-113.1403125 42.38421875 -112.3978125 41.60046875 -111.6328125 40.79296875 C-108.55691995 37.8568895 -105.76195918 36.83046018 -101.8828125 35.16796875 C-101.0784375 34.36359375 -100.2740625 33.55921875 -99.4453125 32.73046875 C-96.7349959 30.02015215 -94.4228894 28.79203907 -90.99609375 27.2109375 C-88.78494427 26.11966779 -86.80763391 24.8483228 -84.7578125 23.48046875 C-80.88429558 20.99470789 -77.49535397 20.16796875 -72.8828125 20.16796875 C-72.8828125 19.17796875 -72.8828125 18.18796875 -72.8828125 17.16796875 C-72.26535156 16.98621094 -71.64789063 16.80445312 -71.01171875 16.6171875 C-60.04893898 13.42877131 -60.04893898 13.42877131 -49.5078125 9.10546875 C-43.12808158 6.1883841 -36.34944651 5.4524443 -29.4453125 4.60546875 C-25.59595765 4.13274096 -22.27559056 3.28654326 -18.5703125 2.16796875 C-12.39520767 0.49336405 -6.37566003 0.01030242 0 0 Z M7.1171875 16.16796875 C7.1171875 16.49796875 7.1171875 16.82796875 7.1171875 17.16796875 C9.4271875 17.16796875 11.7371875 17.16796875 14.1171875 17.16796875 C14.1171875 16.83796875 14.1171875 16.50796875 14.1171875 16.16796875 C11.8071875 16.16796875 9.4971875 16.16796875 7.1171875 16.16796875 Z M202.1171875 140.16796875 C203.1171875 142.16796875 203.1171875 142.16796875 203.1171875 142.16796875 Z M-168.8828125 146.16796875 C-167.8828125 148.16796875 -167.8828125 148.16796875 -167.8828125 148.16796875 Z M-185.8828125 149.16796875 C-184.8828125 151.16796875 -184.8828125 151.16796875 -184.8828125 151.16796875 Z M-190.8828125 172.16796875 C-190.8828125 173.81796875 -190.8828125 175.46796875 -190.8828125 177.16796875 C-190.5528125 177.16796875 -190.2228125 177.16796875 -189.8828125 177.16796875 C-189.8828125 175.51796875 -189.8828125 173.86796875 -189.8828125 172.16796875 C-190.2128125 172.16796875 -190.5428125 172.16796875 -190.8828125 172.16796875 Z M-191.8828125 178.16796875 C-190.8828125 180.16796875 -190.8828125 180.16796875 -190.8828125 180.16796875 Z M196.1171875 185.16796875 C197.1171875 187.16796875 197.1171875 187.16796875 197.1171875 187.16796875 Z M196.1171875 188.16796875 C197.1171875 192.16796875 197.1171875 192.16796875 197.1171875 192.16796875 Z M196.1171875 217.16796875 C197.1171875 220.16796875 197.1171875 220.16796875 197.1171875 220.16796875 Z M-191.8828125 228.16796875 C-190.8828125 230.16796875 -190.8828125 230.16796875 -190.8828125 230.16796875 Z M-190.8828125 231.16796875 C-190.8828125 232.81796875 -190.8828125 234.46796875 -190.8828125 236.16796875 C-190.5528125 236.16796875 -190.2228125 236.16796875 -189.8828125 236.16796875 C-189.8828125 234.51796875 -189.8828125 232.86796875 -189.8828125 231.16796875 C-190.2128125 231.16796875 -190.5428125 231.16796875 -190.8828125 231.16796875 Z M-185.8828125 257.16796875 C-184.8828125 259.16796875 -184.8828125 259.16796875 -184.8828125 259.16796875 Z M-168.8828125 260.16796875 C-167.8828125 262.16796875 -167.8828125 262.16796875 -167.8828125 262.16796875 Z " fill="#FA0102" transform="translate(239.8828125,7.83203125)"/>
<path d="M0 0 C97.02 0 194.04 0 294 0 C294 0.33 294 0.66 294 1 C206.22 1 118.44 1 28 1 C28.33 2.32 28.66 3.64 29 5 C31.97 5.495 31.97 5.495 35 6 C34.67 6.99 34.34 7.98 34 9 C32.35 9 30.7 9 29 9 C29.33 10.32 29.66 11.64 30 13 C26 13 26 13 23.640625 11.13671875 C22.85171875 10.32847656 22.0628125 9.52023437 21.25 8.6875 C20.45078125 7.88699219 19.6515625 7.08648437 18.828125 6.26171875 C17 4 17 4 17 1 C11.39 1 5.78 1 0 1 C0 0.67 0 0.34 0 0 Z " fill="#FB0C0B" transform="translate(101,308)"/>
<path d="M0 0 C0.33 0 0.66 0 1 0 C1 4.62 1 9.24 1 14 C-8.57 14 -18.14 14 -28 14 C-28 15.98 -28 17.96 -28 20 C-29.5 22.375 -29.5 22.375 -31 24 C-34.37462715 23.45276317 -36.08235 22.9451 -39 21 C-38.484375 21.556875 -37.96875 22.11375 -37.4375 22.6875 C-36 25 -36 25 -36.125 27.5 C-37 30 -37 30 -40 34 C-31.09 33.67 -22.18 33.34 -13 33 C-12 37 -12 37 -12 49 C-21.57 49.33 -31.14 49.66 -41 50 C-41 49.01 -41 48.02 -41 47 C-32.42 47 -23.84 47 -15 47 C-15 43.37 -15 39.74 -15 36 C-15.77714355 36.01571045 -16.55428711 36.0314209 -17.35498047 36.04760742 C-20.8615802 36.10980351 -24.36806413 36.14894207 -27.875 36.1875 C-29.70998047 36.22520508 -29.70998047 36.22520508 -31.58203125 36.26367188 C-33.33193359 36.27817383 -33.33193359 36.27817383 -35.1171875 36.29296875 C-36.73536377 36.31653442 -36.73536377 36.31653442 -38.38623047 36.34057617 C-39.68004639 36.17199097 -39.68004639 36.17199097 -41 36 C-43.04762755 32.92855867 -43.2500695 32.30149041 -43.23046875 28.83984375 C-43.22853516 28.04642578 -43.22660156 27.25300781 -43.22460938 26.43554688 C-43.21236328 25.61119141 -43.20011719 24.78683594 -43.1875 23.9375 C-43.18685547 23.10927734 -43.18621094 22.28105469 -43.18554688 21.42773438 C-43.14053468 15.28106936 -43.14053468 15.28106936 -42 13 C-28.14 13 -14.28 13 0 13 C0 8.71 0 4.42 0 0 Z " fill="#F50B0A" transform="translate(366,353)"/>
<path d="M0 0 C3.15835107 1.39750048 5.32272825 3.05198234 7.75 5.5 C8.36359375 6.1084375 8.9771875 6.716875 9.609375 7.34375 C11 9 11 9 11 11 C11.99 10.67 12.98 10.34 14 10 C16.60261601 9.93766556 19.17508414 9.93317102 21.77612305 9.97827148 C22.96183899 9.9926828 22.96183899 9.9926828 24.17150879 10.00738525 C26.78500277 10.04037324 29.3983295 10.08070635 32.01171875 10.12109375 C33.82346507 10.14539506 35.63521757 10.16923862 37.44697571 10.19264221 C42.21622775 10.25548202 46.98537019 10.32454901 51.7545166 10.39489746 C56.62079882 10.46558179 61.48715877 10.53039817 66.35351562 10.59570312 C75.90242918 10.72471415 85.45123724 10.86030156 95 11 C95 11.33 95 11.66 95 12 C13.82 12 -67.36 12 -151 12 C-151 11.67 -151 11.34 -151 11 C-101.5 10.67 -52 10.34 -1 10 C0.10959932 4.35619781 0.10959932 4.35619781 0 0 Z " fill="#FA0D0F" transform="translate(277,279)"/>
<path d="M0 0 C0.39899002 0.48608231 0.79798004 0.97216461 1.20906067 1.47297668 C3.49083263 3.41850265 4.68477776 3.39255734 7.6550293 3.43237305 C8.59577805 3.45216721 9.53652679 3.47196136 10.50578308 3.49235535 C11.51836685 3.49874527 12.53095062 3.50513519 13.57421875 3.51171875 C14.61318802 3.52966995 15.65215729 3.54762115 16.72261047 3.56611633 C20.04419891 3.62034043 23.36564266 3.65415428 26.6875 3.6875 C28.93817123 3.72066234 31.18882334 3.75515097 33.43945312 3.79101562 C38.95950568 3.87607368 44.47957669 3.94437223 50 4 C50 4.33 50 4.66 50 5 C-46.03 5 -142.06 5 -241 5 C-241 4.67 -241 4.34 -241 4 C-240.15516493 3.99503478 -240.15516493 3.99503478 -239.29326248 3.98996925 C-225.58895027 3.90874978 -211.88475003 3.8165355 -198.18059158 3.71247292 C-191.55335848 3.66248199 -184.92614153 3.61615207 -178.29882812 3.578125 C-171.90564571 3.54130772 -165.51259758 3.49495725 -159.11952972 3.44193649 C-156.67786764 3.42337366 -154.23617675 3.40827273 -151.79447174 3.39665604 C-148.38009324 3.37982614 -144.96602356 3.35079844 -141.55175781 3.31884766 C-140.53755768 3.31668747 -139.52335754 3.31452728 -138.47842407 3.31230164 C-137.08184067 3.29555641 -137.08184067 3.29555641 -135.65704346 3.2784729 C-134.8495528 3.27294214 -134.04206215 3.26741138 -133.21010208 3.26171303 C-130.94308432 3.14069359 -130.94308432 3.14069359 -129.02143478 1.85759544 C-127 1 -127 1 -124.56867409 1.85870647 C-123.29718041 2.42364677 -123.29718041 2.42364677 -122 3 C-119.51115206 3.29856561 -119.51115206 3.29856561 -116.9012146 3.26069641 C-115.89739243 3.26778122 -114.89357025 3.27486603 -113.85932922 3.28216553 C-112.76928085 3.27968811 -111.67923248 3.27721069 -110.55615234 3.2746582 C-108.82127312 3.2823246 -108.82127312 3.2823246 -107.05134583 3.29014587 C-103.22949039 3.30404324 -99.40781519 3.30308541 -95.5859375 3.30078125 C-93.60284027 3.30368519 -91.61974297 3.30659367 -89.63664687 3.310188 C-83.40618367 3.32127076 -77.17578078 3.32172657 -70.9453125 3.31567383 C-64.51670531 3.30962482 -58.08831647 3.32197118 -51.65974653 3.3432439 C-46.13776198 3.360845 -40.61584705 3.36686391 -35.09383547 3.36360615 C-31.79671338 3.36179183 -28.49978239 3.36575363 -25.20267868 3.37832069 C-21.52996525 3.39060462 -17.85776333 3.38394227 -14.18505859 3.37231445 C-13.09096176 3.37995819 -11.99686493 3.38760193 -10.86961365 3.39547729 C-9.37233986 3.38495583 -9.37233986 3.38495583 -7.84481812 3.3742218 C-6.54238694 3.37447341 -6.54238694 3.37447341 -5.21364403 3.37473011 C-2.55379353 2.92446527 -1.67202811 2.06226 0 0 Z " fill="#F81113" transform="translate(345,477)"/>
<path d="M0 0 C0.66 0 1.32 0 2 0 C3 3 3 3 3 7 C5.15434635 9.4328881 7.51918146 11.51100053 9.93359375 13.68359375 C12.1998931 16.22407677 12.870147 17.61817629 13 21 C12.34 21.66 11.68 22.32 11 23 C10.34 23 9.68 23 9 23 C7.66216607 23.31478446 6.32796291 23.64587656 5 24 C5 24.99 5 25.98 5 27 C3.35 27 1.7 27 0 27 C-1.4606285 29.64738916 -2 30.89448334 -2 34 C-3.32 33.67 -4.64 33.34 -6 33 C-7.485 35.475 -7.485 35.475 -9 38 C-10 36 -10 36 -9.546875 34.22265625 C-9.15242188 33.15337891 -9.15242188 33.15337891 -8.75 32.0625 C-6.88287839 26.77949231 -5.4273583 21.41586306 -4 16 C-3.34 16 -2.68 16 -2 16 C-1.34 10.72 -0.68 5.44 0 0 Z " fill="#F90C0D" transform="translate(432,248)"/>
<path d="M0 0 C-0.33 2.31 -0.66 4.62 -1 7 C1.88575819 6.60196439 2.82189513 6.20990931 4.75 3.9375 C5.1625 3.298125 5.575 2.65875 6 2 C6 2.99 6 3.98 6 5 C6.99 5.33 7.98 5.66 9 6 C8.34 6 7.68 6 7 6 C7 6.66 7 7.32 7 8 C6.34 8 5.68 8 5 8 C4.67 8.99 4.34 9.98 4 11 C1.69 11 -0.62 11 -3 11 C-2.79375 11.5775 -2.5875 12.155 -2.375 12.75 C-2 15 -2 15 -2.5 17.1875 C-4 19 -4 19 -7.4375 19.9375 C-11 20 -11 20 -12.875 19 C-14.50428024 16.1035018 -14.69110848 13.27425012 -15 10 C-14.38125 9.7525 -13.7625 9.505 -13.125 9.25 C-10.61289704 7.77229238 -10.23892656 6.56044823 -9 4 C-8.01 3.67 -7.02 3.34 -6 3 C-5.505 2.484375 -5.01 1.96875 -4.5 1.4375 C-3 0 -3 0 0 0 Z " fill="#F80B0B" transform="translate(114,64)"/>
<path d="M0 0 C4.455 0.99 4.455 0.99 9 2 C8.57316761 3.58624235 8.13303842 5.1689098 7.6875 6.75 C7.44386719 7.63171875 7.20023437 8.5134375 6.94921875 9.421875 C5.94965195 12.13674779 5.00725451 13.91700003 3 16 C0.30469001 16.8039548 -2.16647402 16.81419502 -5 17 C-5 16.34 -5 15.68 -5 15 C-6.65 15 -8.3 15 -10 15 C-10.33 14.01 -10.66 13.02 -11 12 C-10.67 11.34 -10.34 10.68 -10 10 C-8.02 10 -6.04 10 -4 10 C-4.845625 9.2575 -5.69125 8.515 -6.5625 7.75 C-7.366875 6.8425 -8.17125 5.935 -9 5 C-8.8125 2.6875 -8.8125 2.6875 -8 1 C-7.01 1.33 -6.02 1.66 -5 2 C-5 2.66 -5 3.32 -5 4 C-3.35 3.34 -1.7 2.68 0 2 C0 1.34 0 0.68 0 0 Z " fill="#F80C0D" transform="translate(290,13)"/>
<path d="M0 0 C2.97 0.495 2.97 0.495 6 1 C6.10792837 3.60527105 6.18724878 6.20608311 6.25 8.8125 C6.30027344 9.91948242 6.30027344 9.91948242 6.3515625 11.04882812 C6.45030714 16.5044697 6.45030714 16.5044697 4.171875 19.01171875 C2 20 2 20 -1 20 C-1 17 -1 17 1 14.8125 C1.99 13.9153125 1.99 13.9153125 3 13 C2.44570312 13.15597656 1.89140625 13.31195313 1.3203125 13.47265625 C0.23363281 13.76462891 0.23363281 13.76462891 -0.875 14.0625 C-1.59429687 14.25972656 -2.31359375 14.45695312 -3.0546875 14.66015625 C-5 15 -5 15 -7 14 C-7.875 11.1875 -7.875 11.1875 -8 8 C-6.0625 5.625 -6.0625 5.625 -4 4 C-3.01 4.33 -2.02 4.66 -1 5 C-0.67 3.35 -0.34 1.7 0 0 Z " fill="#FA0B0A" transform="translate(196,362)"/>
<path d="M0 0 C0.33 0.66 0.66 1.32 1 2 C2.32 1.67 3.64 1.34 5 1 C4.6875 2.9375 4.6875 2.9375 4 5 C3.01 5.33 2.02 5.66 1 6 C1 32.07 1 58.14 1 85 C-4.28 85 -9.56 85 -15 85 C-15 84.67 -15 84.34 -15 84 C-10.38 83.67 -5.76 83.34 -1 83 C-1.00523682 82.01346436 -1.01047363 81.02692871 -1.01586914 80.01049805 C-1.14405377 53.32440203 -0.7392411 26.67559377 0 0 Z " fill="#F50909" transform="translate(218,353)"/>
<path d="M0 0 C0.33 0 0.66 0 1 0 C1 32.01 1 64.02 1 97 C0.67 97 0.34 97 0 97 C0 88.42 0 79.84 0 71 C-0.99 71 -1.98 71 -3 71 C-3 69.35 -3 67.7 -3 66 C-3.99 66.495 -3.99 66.495 -5 67 C-3.25 62.125 -3.25 62.125 -1 61 C-0.67 40.87 -0.34 20.74 0 0 Z " fill="#FA0E0E" transform="translate(219,151)"/>
<path d="M0 0 C3.12857014 1.3881735 5.28189174 3.01101878 7.6875 5.4375 C8.28949219 6.03433594 8.89148438 6.63117188 9.51171875 7.24609375 C11 9 11 9 12 12 C10.4375 14.0625 10.4375 14.0625 8 16 C4.25 15.75 4.25 15.75 1 15 C-0.66527474 10.78783447 -1.06381554 8.37346389 0 4 C-0.33 3.01 -0.66 2.02 -1 1 C-0.67 0.67 -0.34 0.34 0 0 Z " fill="#FB0B0B" transform="translate(303,125)"/>
<path d="M0 0 C0 1.32 0 2.64 0 4 C-0.66 4 -1.32 4 -2 4 C-1.67 4.66 -1.34 5.32 -1 6 C0.32 5.34 1.64 4.68 3 4 C2.44295272 7.23087421 1.66812465 9.02361137 -1 11 C-2.32 11 -3.64 11 -5 11 C-4.67 12.32 -4.34 13.64 -4 15 C-4.99 15.33 -5.98 15.66 -7 16 C-7.28875 14.80375 -7.5775 13.6075 -7.875 12.375 C-8.7524334 8.85273164 -9.80020637 5.42798179 -11 2 C-6.97107804 -0.96244261 -4.82799816 -1.2350693 0 0 Z " fill="#F90C0D" transform="translate(433,137)"/>
<path d="M0 0 C0.66 0 1.32 0 2 0 C2 1.98 2 3.96 2 6 C4.31 6.33 6.62 6.66 9 7 C8.67 7.99 8.34 8.98 8 10 C5.9375 10.6875 5.9375 10.6875 4 11 C4 11.99 4 12.98 4 14 C1.83125748 13.49396008 0.00032373 13.00016187 -2 12 C-2 11.34 -2 10.68 -2 10 C-2.66 10 -3.32 10 -4 10 C-5.7143618 8.04072937 -7.38405168 6.04119788 -9 4 C-8.34 3.01 -7.68 2.02 -7 1 C-4.525 2.98 -4.525 2.98 -2 5 C-1.34 3.35 -0.68 1.7 0 0 Z " fill="#FB0C0C" transform="translate(379,315)"/>
<path d="M0 0 C0.226875 0.61875 0.45375 1.2375 0.6875 1.875 C1.84931972 4.22720631 1.84931972 4.22720631 4.5 5 C7 6 7 6 8.3125 8.125 C8.6528125 9.053125 8.6528125 9.053125 9 10 C8.01 11.485 8.01 11.485 7 13 C8.32 12.34 9.64 11.68 11 11 C10.8125 13.375 10.8125 13.375 10 16 C8.35448038 16.71727778 6.68577711 17.38325228 5 18 C3.82312162 20.00426288 3.82312162 20.00426288 3 22 C2.92652344 21.14728516 2.92652344 21.14728516 2.8515625 20.27734375 C2.48206279 16.46130367 2.00360688 13.01251801 0.9375 9.3125 C0.00891059 6.0314841 -0.16525828 3.38779472 0 0 Z " fill="#F80B0C" transform="translate(50,245)"/>
<path d="M0 0 C0.7425 0.391875 1.485 0.78375 2.25 1.1875 C1.67655063 4.05474686 1.3885485 5.0489515 -0.75 7.1875 C-0.09 7.1875 0.57 7.1875 1.25 7.1875 C1.58 6.5275 1.91 5.8675 2.25 5.1875 C3.24 5.1875 4.23 5.1875 5.25 5.1875 C4.625 7.625 4.625 7.625 3.25 10.1875 C0.375 11.25 0.375 11.25 -2.75 11.1875 C-5.61552243 9.22687939 -6.58343012 8.04117063 -7.25 4.625 C-6.75 2.1875 -6.75 2.1875 -5.0625 0.25 C-2.75 -0.8125 -2.75 -0.8125 0 0 Z " fill="#FB0C0C" transform="translate(178.75,128.8125)"/>
<path d="M0 0 C0 0.99 0 1.98 0 3 C0.04125 3.825 0.0825 4.65 0.125 5.5 C0 8 0 8 -2 11 C-0.68 10.34 0.64 9.68 2 9 C1.67 10.65 1.34 12.3 1 14 C-2.3125 14.6875 -2.3125 14.6875 -6 15 C-7.9375 13.5625 -7.9375 13.5625 -9 12 C-6.375 7.125 -6.375 7.125 -3 6 C-1.84478498 3.52869082 -1.84478498 3.52869082 -1 1 C-0.67 0.67 -0.34 0.34 0 0 Z " fill="#F30809" transform="translate(85,93)"/>
<path d="M0 0 C0.33 0 0.66 0 1 0 C1 3.96 1 7.92 1 12 C-8.57 12.33 -18.14 12.66 -28 13 C-28 12.01 -28 11.02 -28 10 C-18.76 10 -9.52 10 0 10 C0 6.7 0 3.4 0 0 Z " fill="#FB1313" transform="translate(353,390)"/>
<path d="M0 0 C0 3.3 0 6.6 0 10 C-2.3125 10.625 -2.3125 10.625 -5 11 C-5.99 10.34 -6.98 9.68 -8 9 C-8.375 6.5625 -8.375 6.5625 -8 4 C-5.85618926 1.14158568 -3.65040776 0 0 0 Z " fill="#F90B0B" transform="translate(66,236)"/>
<path d="M0 0 C6.875 1.875 6.875 1.875 8 3 C7.71269945 5.33944736 7.38063221 7.6739143 7 10 C5.35 10.66 3.7 11.32 2 12 C1.67 11.01 1.34 10.02 1 9 C2.32 7.68 3.64 6.36 5 5 C2.69 5.33 0.38 5.66 -2 6 C-2 4.68 -2 3.36 -2 2 C-1.34 2 -0.68 2 0 2 C0 1.34 0 0.68 0 0 Z " fill="#F90D0D" transform="translate(90,86)"/>
<path d="M0 0 C2.9375 0.125 2.9375 0.125 6 1 C7.125 3.5 7.125 3.5 8 6 C10.04105639 6.88693303 10.04105639 6.88693303 12 7 C11.67 8.32 11.34 9.64 11 11 C6.47794021 10.46799297 3.5163545 8.87701732 0 6 C-0.9375 3.3125 -0.9375 3.3125 -1 1 C-0.67 0.67 -0.34 0.34 0 0 Z " fill="#FC0C0D" transform="translate(189,110)"/>
<path d="M0 0 C1.65 0 3.3 0 5 0 C5.391875 0.94875 5.78375 1.8975 6.1875 2.875 C8.19793856 6.34127338 9.22699642 6.9802693 13 8 C12.01 9.485 12.01 9.485 11 11 C9.68 11 8.36 11 7 11 C7 10.34 7 9.68 7 9 C6.21625 8.690625 5.4325 8.38125 4.625 8.0625 C2 7 2 7 0 6 C0 4.02 0 2.04 0 0 Z " fill="#FB0C0C" transform="translate(352,338)"/>
<path d="M0 0 C2.3477657 7.59669901 -2.42748144 18.16293862 -6 25 C-6.66 25 -7.32 25 -8 25 C-7.60881759 19.52344626 -6.60076364 15.76322343 -3.984375 10.95703125 C-2.52912839 8.0638624 -1.81351854 5.12891745 -1 2 C-0.67 1.34 -0.34 0.68 0 0 Z " fill="#F6070B" transform="translate(289,379)"/>
<path d="M0 0 C0.33 0.66 0.66 1.32 1 2 C1.66 2 2.32 2 3 2 C3 8.27 3 14.54 3 21 C2.67 20.01 2.34 19.02 2 18 C-0.00016466 16.79117904 -0.00016466 16.79117904 -2 16 C-2 14.68 -2 13.36 -2 12 C-1.01 12 -0.02 12 1 12 C1.33 10.02 1.66 8.04 2 6 C1.34 6 0.68 6 0 6 C-0.38218767 4.34385343 -0.71395102 2.67542976 -1 1 C-0.67 0.67 -0.34 0.34 0 0 Z " fill="#F50707" transform="translate(420,396)"/>
<path d="M0 0 C0.391875 0.45375 0.78375 0.9075 1.1875 1.375 C3.30832487 3.27642919 5.33042235 4.06204028 8 5 C7.67 5.99 7.34 6.98 7 8 C6.01 8.33 5.02 8.66 4 9 C2.2925002 7.71937515 0.62626404 6.38232443 -1 5 C-1.99 4.67 -2.98 4.34 -4 4 C-3.67 3.01 -3.34 2.02 -3 1 C-2.01 0.67 -1.02 0.34 0 0 Z " fill="#FA0D0D" transform="translate(97,81)"/>
<path d="M0 0 C-0.33 0.99 -0.66 1.98 -1 3 C-1.66 3 -2.32 3 -3 3 C-2.01 5.64 -1.02 8.28 0 11 C-1.65 10.67 -3.3 10.34 -5 10 C-6.1875 7.25 -6.1875 7.25 -7 4 C-5.12738026 0.04669167 -4.52176318 0 0 0 Z " fill="#FB0D0E" transform="translate(447,251)"/>
<path d="M0 0 C2 2 2 2 2 6 C3.98 6 5.96 6 8 6 C7.67 7.32 7.34 8.64 7 10 C4.69 9.34 2.38 8.68 0 8 C-0.38063221 5.6739143 -0.71269945 3.33944736 -1 1 C-0.67 0.67 -0.34 0.34 0 0 Z " fill="#F90D0E" transform="translate(372,63)"/>
<path d="M0 0 C0.66 0 1.32 0 2 0 C2.33663062 3.70293685 2.47736015 5.39534381 0.125 8.375 C-2 10 -2 10 -4 10 C-3.52449439 8.51965236 -3.04448784 7.04074979 -2.5625 5.5625 C-2.29566406 4.73878906 -2.02882813 3.91507812 -1.75390625 3.06640625 C-1 1 -1 1 0 0 Z " fill="#FA0D0D" transform="translate(76,108)"/>
<path d="M0 0 C0.66 0 1.32 0 2 0 C1.67 1.65 1.34 3.3 1 5 C-1.31 5.33 -3.62 5.66 -6 6 C-6.33 5.01 -6.66 4.02 -7 3 C-5.5459375 2.5359375 -5.5459375 2.5359375 -4.0625 2.0625 C-1.15934208 1.30476658 -1.15934208 1.30476658 0 0 Z " fill="#FB0D0D" transform="translate(85,102)"/>
<path d="M0 0 C0.66 0 1.32 0 2 0 C1.67 2.64 1.34 5.28 1 8 C-0.32 7.67 -1.64 7.34 -3 7 C-2.25 2.25 -2.25 2.25 0 0 Z " fill="#F90D0C" transform="translate(93,470)"/>
<path d="M0 0 C0.33 0.99 0.66 1.98 1 3 C1.66 3.33 2.32 3.66 3 4 C2.67 4.66 2.34 5.32 2 6 C0.02 6 -1.96 6 -4 6 C-4.33 5.01 -4.66 4.02 -5 3 C-2.25 0 -2.25 0 0 0 Z " fill="#F4080A" transform="translate(101,476)"/>
<path d="M0 0 C0.66 0 1.32 0 2 0 C1.14285714 8.57142857 1.14285714 8.57142857 -1 12 C-2.47006623 7.58980132 -1.43537323 4.30611969 0 0 Z " fill="#F60608" transform="translate(292,366)"/>
<path d="M0 0 C1.8125 0.125 1.8125 0.125 4 1 C5.75 4.0625 5.75 4.0625 7 7 C5.02 6.34 3.04 5.68 1 5 C0.67 3.35 0.34 1.7 0 0 Z " fill="#F60304" transform="translate(428,264)"/>
<path d="M0 0 C1.98 0.495 1.98 0.495 4 1 C4 2.32 4 3.64 4 5 C2.68 4.67 1.36 4.34 0 4 C0 2.68 0 1.36 0 0 Z " fill="#F50202" transform="translate(290,18)"/>
<path d="M0 0 C1.98 0.495 1.98 0.495 4 1 C4 2.32 4 3.64 4 5 C2.68 4.67 1.36 4.34 0 4 C0 2.68 0 1.36 0 0 Z " fill="#F50202" transform="translate(331,368)"/>
<path d="M0 0 C1.32 0.99 2.64 1.98 4 3 C3.67 3.99 3.34 4.98 3 6 C1.68 5.34 0.36 4.68 -1 4 C-0.67 2.68 -0.34 1.36 0 0 Z " fill="#F50202" transform="translate(436,262)"/>
<path d="M0 0 C-1.24546405 3.73639216 -2.63404953 4.18756513 -6 6 C-6.33 5.34 -6.66 4.68 -7 4 C-4.83989616 0.75984424 -3.8842653 0 0 0 Z " fill="#F5040C" transform="translate(129,69)"/>
<path d="M0 0 C1.32 0.66 2.64 1.32 4 2 C4 2.99 4 3.98 4 5 C1.525 4.01 1.525 4.01 -1 3 C-0.67 2.01 -0.34 1.02 0 0 Z " fill="#F80A0B" transform="translate(337,95)"/>
<path d="M0 0 C2.64 0 5.28 0 8 0 C8 0.66 8 1.32 8 2 C5.69 2.66 3.38 3.32 1 4 C0.67 2.68 0.34 1.36 0 0 Z " fill="#F40804" transform="translate(220,67)"/>
<path d="M0 0 C0.33 0 0.66 0 1 0 C1 2.31 1 4.62 1 7 C0.67 7 0.34 7 0 7 C0 4.69 0 2.38 0 0 Z " fill="#FF0000" transform="translate(396,217)"/>
<path d="M0 0 C0.33 0 0.66 0 1 0 C1 2.31 1 4.62 1 7 C0.67 7 0.34 7 0 7 C0 4.69 0 2.38 0 0 Z " fill="#FF0000" transform="translate(396,200)"/>
<path d="M0 0 C4 1 4 1 4 1 Z " fill="#FF0000" transform="translate(72,305)"/>
<path d="M0 0 C3 1 3 1 3 1 Z " fill="#FF0000" transform="translate(100,482)"/>
<path d="" fill="#FF0000" transform="translate(0,0)"/>
<path d="" fill="#FF0000" transform="translate(0,0)"/>
<path d="M0 0 C3 1 3 1 3 1 Z " fill="#FF0000" transform="translate(424,305)"/>
<path d="M0 0 C3 1 3 1 3 1 Z " fill="#FF0000" transform="translate(307,35)"/>
<path d="" fill="#FF0000" transform="translate(0,0)"/>
<path d="" fill="#FF0000" transform="translate(0,0)"/>
<path d="" fill="#FF0000" transform="translate(0,0)"/>
<path d="" fill="#FF0000" transform="translate(0,0)"/>
<path d="" fill="#FF0000" transform="translate(0,0)"/>
<path d="" fill="#FF0000" transform="translate(0,0)"/>
<path d="M0 0 C2 1 2 1 2 1 Z " fill="#FF0000" transform="translate(99,307)"/>
<path d="" fill="#FF0000" transform="translate(0,0)"/>
<path d="" fill="#FF0000" transform="translate(0,0)"/>
<path d="" fill="#FF0000" transform="translate(0,0)"/>
<path d="" fill="#FF0000" transform="translate(0,0)"/>
<path d="" fill="#FF0000" transform="translate(0,0)"/>
<path d="" fill="#FF0000" transform="translate(0,0)"/>
<path d="M0 0 C2 1 2 1 2 1 Z " fill="#FF0000" transform="translate(310,36)"/>
<path d="" fill="#FF0000" transform="translate(0,0)"/>
<path d="" fill="#FF0000" transform="translate(0,0)"/>
<path d="" fill="#FF0000" transform="translate(0,0)"/>
<path d="" fill="#FF0000" transform="translate(0,0)"/>
<path d="" fill="#FF0000" transform="translate(0,0)"/>
<path d="" fill="#FF0000" transform="translate(0,0)"/>
<path d="" fill="#FF0000" transform="translate(0,0)"/>
<path d="" fill="#FF0000" transform="translate(0,0)"/>
<path d="" fill="#FF0000" transform="translate(0,0)"/>
<path d="" fill="#FF0000" transform="translate(0,0)"/>
<path d="" fill="#FF0000" transform="translate(0,0)"/>
<path d="" fill="#FF0000" transform="translate(0,0)"/>
<path d="" fill="#FF0000" transform="translate(0,0)"/>
<path d="" fill="#FF0000" transform="translate(0,0)"/>
<path d="" fill="#FF0000" transform="translate(0,0)"/>
<path d="" fill="#FF0000" transform="translate(0,0)"/>
<path d="" fill="#FF0000" transform="translate(0,0)"/>
<path d="" fill="#FF0000" transform="translate(0,0)"/>
<path d="" fill="#FF0000" transform="translate(0,0)"/>
<path d="" fill="#FF0000" transform="translate(0,0)"/>
<path d="" fill="#FF0000" transform="translate(0,0)"/>
<path d="" fill="#FF0000" transform="translate(0,0)"/>
<path d="" fill="#FF0000" transform="translate(0,0)"/>
<path d="" fill="#FF0000" transform="translate(0,0)"/>
<path d="" fill="#FF0000" transform="translate(0,0)"/>
<path d="" fill="#FF0000" transform="translate(0,0)"/>
<path d="" fill="#FF0000" transform="translate(0,0)"/>
<path d="" fill="#FF0000" transform="translate(0,0)"/>
<path d="" fill="#FF0000" transform="translate(0,0)"/>
<path d="" fill="#FF0000" transform="translate(0,0)"/>
<path d="" fill="#FF0000" transform="translate(0,0)"/>
<path d="" fill="#FF0000" transform="translate(0,0)"/>
<path d="" fill="#FF0000" transform="translate(0,0)"/>
<path d="" fill="#FF0000" transform="translate(0,0)"/>
<path d="" fill="#FF0000" transform="translate(0,0)"/>
<path d="" fill="#FF0000" transform="translate(0,0)"/>
</svg>
